<?xml version="1.0" encoding="utf-8"?>
<!-- Generator: Adobe Illustrator 19.0.0, SVG Export Plug-In . SVG Version: 6.00 Build 0)  -->
<svg version="1.1" id="Layer_1" xmlns:sketch="http://www.bohemiancoding.com/sketch/ns"
	 xmlns="http://www.w3.org/2000/svg" xmlns:xlink="http://www.w3.org/1999/xlink" x="0px" y="0px" width="32px" height="32px"
	 viewBox="-105.2 49.8 32 32" style="enable-background:new -105.2 49.8 32 32;" xml:space="preserve">
<style type="text/css">
	.st0{fill:#929292;}
</style>
<title></title>
<desc></desc>
<g id="Page-1">
	<g id="icon-111-search">
		<path id="search" class="st0" d="M6.4,35.4C5,36.4,3.3,37,1.5,37C-3.2,37-7,33.2-7,28.5S-3.2,20,1.5,20s8.5,3.8,8.5,8.5
			c0,2.3-1,4.5-2.5,6l6,6c0.3,0.3,0.3,0.7,0,1c-0.3,0.3-0.7,0.3-1,0L6.4,35.4L6.4,35.4z M1.5,36C5.6,36,9,32.6,9,28.5S5.6,21,1.5,21
			S-6,24.4-6,28.5S-2.6,36,1.5,36L1.5,36z"/>
	</g>
</g>
<polygon class="st0" points="-77.8,53.9 -89.3,65.4 -100.7,53.9 -101.5,54.7 -90.1,66.2 -101.5,77.7 -100.7,78.4 -89.3,67 
	-77.8,78.4 -77,77.7 -88.5,66.2 -77,54.7 "/>
</svg>
